# xmcd
#
# Track frame offsets:
#	150
#	17023
#	35256
#	52834
#	75730
#	91515
#	122360
#	147159
#
# Disc length: 2362 seconds
#
# Revision: 0
# Processed by: cddbd v1.5.2PL0 Copyright (c) Steve Scherf et al.
# Submitted via: dBpowerAMP V4.0
#
DISCID=4e093808
DTITLE=Bobby Womack - The Poet
DYEAR=1900
DGENRE=
TTITLE0=So Many Sides Of You
TTITLE1=Lay Your Lovin' On Me
TTITLE2=Secrets
TTITLE3=Just My Imagination
TTITLE4=Stand Up
TTITLE5=Games
TTITLE6=If You Think You're Lonely Now
TTITLE7=Where Do We Go From Here
EXTD=
EXTT0=
EXTT1=
EXTT2=
EXTT3=
EXTT4=
EXTT5=
EXTT6=
EXTT7=
PLAYORDER=
